<svg xmlns="http://www.w3.org/2000/svg" role="img" alt="Opus Clip logo" width="82" height="20" viewBox="0 0 81 20" fill="none"><g clip-path="url(#a)">
<title>OpenAI logo</title>
<path fill="#fff" d="M47.532 7.578v.006c-.04 0-.082.007-.122.007-.04 0-.081-.007-.122-.007-2.418 0-3.915 1.51-3.915 3.935v1.192c0 2.337 1.517 3.786 3.949 3.786.05.002.1 0 .149-.006.034 0 .06.006.095.006 1.632 0 2.77-.595 3.494-1.828l-1.442-.834c-.481.711-1.125 1.247-2.046 1.247-1.232 0-1.97-.759-1.97-2.039v-.339h5.716v-1.408c0-2.262-1.483-3.718-3.786-3.718Zm-.122 1.388c1.124.054 1.801.8 1.801 2.025v.339h-3.616v-.197c0-1.354.643-2.113 1.815-2.167Zm-8.88-1.382c-1.076 0-2.004.447-2.492 1.192l-.121.19V7.787H33.87v11.44h2.147V15.23l.122.183c.46.684 1.361 1.09 2.411 1.09H38.653c1.767 0 3.549-1.151 3.549-3.732v-1.449c0-1.856-1.098-3.732-3.563-3.732l-.013-.006h-.095Zm-.5 1.612c1.246.02 2.018.867 2.018 2.222v1.246c0 1.354-.779 2.194-2.039 2.221-1.171-.02-1.99-.914-1.99-2.187v-1.28c0-1.287.825-2.195 2.01-2.222ZM65.852 4.76l-4.131 11.541h2.323l.793-2.472h4.51v.027l.793 2.452h2.323L68.325 4.767h-.244l-.007-.007h-2.222Zm1.233 1.985 1.727 5.452h-3.468l1.741-5.452Zm13.688-.36V4.76h-7.084v1.626h2.485v8.276h-2.486v1.625h7.085v-1.625h-2.486V6.386h2.486Zm-23.312 1.2h-.095c-1.199 0-2.052.406-2.472 1.185l-.129.237v-1.22H52.72v8.507h2.147v-5.066c0-1.192.643-1.876 1.754-1.896 1.063.02 1.673.69 1.673 1.849v5.113h2.147v-5.479c0-2.025-1.111-3.23-2.974-3.23h-.006ZM26.969 4.523c-3.163 0-5.134 1.971-5.134 5.148v1.713c0 3.176 1.965 5.147 5.134 5.147h.095c3.163 0 5.134-1.97 5.134-5.147V9.671c0-3.177-1.97-5.148-5.134-5.148h-.095Zm.048 1.72c1.883.021 2.966 1.226 2.966 3.312v1.951c0 2.086-1.083 3.292-2.966 3.312-1.883-.02-2.967-1.226-2.967-3.312v-1.95c0-2.087 1.084-3.292 2.967-3.312ZM8.317-.203a5.06 5.06 0 0 0-4.809 3.488A4.999 4.999 0 0 0 .176 5.702a5.038 5.038 0 0 0 .623 5.905 4.963 4.963 0 0 0 .427 4.085 5.05 5.05 0 0 0 5.432 2.424 4.987 4.987 0 0 0 3.752 1.68 5.06 5.06 0 0 0 4.809-3.488 4.972 4.972 0 0 0 3.325-2.418 5.026 5.026 0 0 0-.616-5.906v-.007a4.981 4.981 0 0 0-.427-4.09 5.052 5.052 0 0 0-5.425-2.418A5.006 5.006 0 0 0 8.317-.204Zm0 1.3-.007.007c.88 0 1.727.305 2.405.867-.027.014-.082.047-.122.068L6.61 4.334a.649.649 0 0 0-.325.569v5.39l-1.713-.988V4.85a3.75 3.75 0 0 1 3.745-3.753Zm4.797 1.57a3.748 3.748 0 0 1 3.703 4.384c-.027-.02-.081-.048-.115-.068l-3.983-2.303a.667.667 0 0 0-.656 0L7.396 7.375V5.397l3.854-2.228a3.73 3.73 0 0 1 1.864-.503Zm-9.85 2.047v4.734c0 .237.122.447.326.57l4.66 2.688-1.721.995-3.847-2.221a3.75 3.75 0 0 1 .583-6.766Zm8.927 1.172 3.854 2.221a3.744 3.744 0 0 1 1.368 5.12l.006.007a3.739 3.739 0 0 1-1.95 1.64v-4.735a.648.648 0 0 0-.325-.569l-4.667-2.696 1.714-.988ZM9.36 7.517l1.964 1.138v2.269L9.36 12.06l-1.964-1.137v-2.27L9.36 7.518Zm3.088 1.788 1.714.989v4.45a3.75 3.75 0 0 1-3.745 3.752v-.007a3.738 3.738 0 0 1-2.398-.867c.027-.013.088-.047.122-.068l3.982-2.296a.634.634 0 0 0 .325-.569V9.305Zm-1.117 2.912v1.978l-3.854 2.221a3.756 3.756 0 0 1-5.12-1.368h.006a3.718 3.718 0 0 1-.447-2.506c.027.02.082.047.115.068l3.983 2.303a.668.668 0 0 0 .657 0l4.66-2.696Z"/></g><defs><clipPath id="a"><path fill="#fff" d="M0 0h81.276v20H0z"/></clipPath></defs></svg>