<svg width="82" height="20" viewBox="0 0 82 20" fill="none" xmlns="http://www.w3.org/2000/svg">
<g clip-path="url(#clip0_65_2)">
<mask id="mask0_65_2" style="mask-type:luminance" maskUnits="userSpaceOnUse" x="0" y="0" width="82" height="20">
<path d="M0.5 0H81.776V20H0.5V0Z" fill="white"/>
</mask>
<g mask="url(#mask0_65_2)">
<path d="M48.032 7.57796V7.58396C47.992 7.58396 47.95 7.59096 47.91 7.59096C47.87 7.59096 47.829 7.58396 47.788 7.58396C45.37 7.58396 43.873 9.09396 43.873 11.519V12.711C43.873 15.048 45.39 16.497 47.822 16.497C47.872 16.499 47.922 16.497 47.971 16.491C48.005 16.491 48.031 16.497 48.066 16.497C49.698 16.497 50.836 15.902 51.56 14.669L50.118 13.835C49.637 14.546 48.993 15.082 48.072 15.082C46.84 15.082 46.102 14.323 46.102 13.043V12.704H51.818V11.296C51.818 9.03395 50.335 7.57796 48.032 7.57796ZM47.91 8.96595C49.034 9.01995 49.711 9.76596 49.711 10.991V11.33H46.095V11.133C46.095 9.77896 46.738 9.01995 47.91 8.96595ZM39.03 7.58396C37.954 7.58396 37.026 8.03096 36.538 8.77596L36.417 8.96595V7.78696H34.37V19.227H36.517V15.23L36.639 15.413C37.099 16.097 38 16.503 39.05 16.503H39.153C40.92 16.503 42.702 15.352 42.702 12.771V11.322C42.702 9.46595 41.604 7.58996 39.139 7.58996L39.126 7.58396H39.03ZM38.53 9.19596C39.776 9.21596 40.548 10.063 40.548 11.418V12.664C40.548 14.018 39.769 14.858 38.509 14.885C37.338 14.865 36.519 13.971 36.519 12.698V11.418C36.519 10.131 37.345 9.22296 38.53 9.19596ZM66.352 4.75996L62.221 16.301H64.544L65.337 13.829H69.847V13.856L70.64 16.308H72.963L68.825 4.76696H68.581L68.574 4.75996H66.352ZM67.585 6.74496L69.312 12.197H65.844L67.585 6.74496ZM81.273 6.38496V4.75996H74.189V6.38596H76.674V14.662H74.188V16.287H81.273V14.662H78.787V6.38596L81.273 6.38496ZM57.961 7.58496H57.866C56.667 7.58496 55.814 7.99096 55.394 8.76996L55.265 9.00696V7.78696H53.22V16.294H55.367V11.228C55.367 10.036 56.01 9.35195 57.121 9.33195C58.184 9.35195 58.794 10.022 58.794 11.181V16.294H60.941V10.815C60.941 8.78995 59.83 7.58496 57.967 7.58496H57.961ZM27.469 4.52295C24.306 4.52295 22.335 6.49395 22.335 9.67095V11.384C22.335 14.56 24.3 16.531 27.469 16.531H27.564C30.727 16.531 32.698 14.561 32.698 11.384V9.67095C32.698 6.49395 30.728 4.52295 27.564 4.52295H27.469ZM27.517 6.24296C29.4 6.26396 30.483 7.46896 30.483 9.55496V11.506C30.483 13.592 29.4 14.798 27.517 14.818C25.634 14.798 24.55 13.592 24.55 11.506V9.55595C24.55 7.46896 25.634 6.26296 27.517 6.24296ZM8.81701 -0.203045C7.75005 -0.202915 6.71044 0.134481 5.84675 0.760923C4.98305 1.38737 4.33948 2.27079 4.00801 3.28496C3.31287 3.42821 2.6562 3.71784 2.08169 4.13458C1.50717 4.55133 1.02799 5.08563 0.676009 5.70196C0.141072 6.62534 -0.0868394 7.69474 0.0251269 8.75599C0.137093 9.81724 0.583154 10.8155 1.29901 11.607C1.0745 12.2789 0.996451 12.9911 1.0701 13.6957C1.14375 14.4003 1.3674 15.081 1.72601 15.692C2.25836 16.6189 3.07111 17.353 4.04725 17.7886C5.02339 18.2242 6.11257 18.3388 7.15801 18.116C7.62808 18.6466 8.20587 19.0709 8.85285 19.3605C9.49983 19.6502 10.2011 19.7987 10.91 19.796C11.977 19.7958 13.0166 19.4584 13.8803 18.832C14.744 18.2055 15.3875 17.3221 15.719 16.308C16.4136 16.1653 17.0697 15.8758 17.6431 15.4587C18.2166 15.0417 18.6943 14.5068 19.044 13.89C19.5819 12.9677 19.8122 11.8981 19.7015 10.8363C19.5907 9.77437 19.1447 8.77533 18.428 7.98396V7.97696C18.6521 7.30411 18.7299 6.59118 18.6563 5.88583C18.5826 5.18049 18.3592 4.499 18.001 3.88696C17.4679 2.96267 16.6559 2.2309 15.6814 1.79652C14.7068 1.36214 13.6198 1.24748 12.576 1.46896C12.1037 0.939691 11.5244 0.516837 10.8763 0.228412C10.2283 -0.0600125 9.52634 -0.207421 8.81701 -0.204045V-0.203045ZM8.81701 1.09696L8.81001 1.10396C9.69001 1.10396 10.537 1.40896 11.215 1.97096C11.188 1.98496 11.133 2.01796 11.093 2.03896L7.11001 4.33396C7.01023 4.39144 6.92754 4.47443 6.87042 4.57443C6.81331 4.67442 6.78383 4.78781 6.78501 4.90296V10.293L5.07201 9.30496V4.84996C5.07121 3.85574 5.46526 2.9019 6.16753 2.19813C6.8698 1.49437 7.82279 1.09828 8.81701 1.09696ZM13.614 2.66696C14.1608 2.66559 14.7013 2.78389 15.1976 3.01356C15.6938 3.24323 16.1338 3.5787 16.4866 3.99644C16.8395 4.41418 17.0967 4.90407 17.2401 5.43174C17.3836 5.9594 17.4098 6.51207 17.317 7.05096C17.29 7.03096 17.236 7.00295 17.202 6.98295L13.219 4.67996C13.1189 4.62343 13.0059 4.59373 12.891 4.59373C12.7761 4.59373 12.6631 4.62343 12.563 4.67996L7.89601 7.37496V5.39696L11.75 3.16896C12.3164 2.8406 12.9593 2.66713 13.614 2.66596V2.66696ZM3.76401 4.71396V9.44796C3.76401 9.68496 3.88601 9.89495 4.09001 10.018L8.75001 12.706L7.02901 13.701L3.18201 11.48C2.56513 11.1233 2.06265 10.5982 1.7334 9.96624C1.40416 9.33428 1.26179 8.6216 1.32297 7.91165C1.38414 7.2017 1.64633 6.52388 2.07882 5.95756C2.51131 5.39124 3.09621 4.95986 3.76501 4.71396H3.76401ZM12.691 5.88596L16.545 8.10696C16.9713 8.35299 17.345 8.68069 17.6445 9.07128C17.9441 9.46188 18.1637 9.90771 18.2908 10.3833C18.4178 10.8588 18.4499 11.3548 18.385 11.8427C18.3202 12.3307 18.1598 12.8011 17.913 13.227L17.919 13.234C17.4811 13.9921 16.791 14.5725 15.969 14.874V10.139C15.9703 10.0238 15.9409 9.91036 15.8837 9.81035C15.8266 9.71034 15.7439 9.62736 15.644 9.56995L10.977 6.87396L12.691 5.88596ZM9.86001 7.51696L11.824 8.65495V10.924L9.86001 12.06L7.89601 10.923V8.65296L9.86001 7.51696ZM12.948 9.30496L14.662 10.294V14.744C14.6625 15.738 14.2684 16.6916 13.5661 17.3951C12.8639 18.0987 11.9111 18.4946 10.917 18.496V18.489C10.0408 18.49 9.19202 18.1831 8.51901 17.622C8.54601 17.609 8.60701 17.575 8.64101 17.554L12.623 15.258C12.7239 15.2017 12.8074 15.119 12.8647 15.0187C12.922 14.9184 12.9508 14.8044 12.948 14.689V9.30496ZM11.831 12.217V14.195L7.97701 16.416C7.11611 16.9112 6.09412 17.0453 5.1346 16.7889C4.17509 16.5325 3.35617 15.9066 2.85701 15.048H2.86301C2.42378 14.2912 2.2655 13.4039 2.41601 12.542C2.44301 12.562 2.49801 12.589 2.53101 12.61L6.51401 14.913C6.61424 14.9696 6.7274 14.9993 6.84251 14.9993C6.95762 14.9993 7.07078 14.9696 7.17101 14.913L11.831 12.217Z" fill="black"/>
</g>
</g>
<defs>
<clipPath id="clip0_65_2">
<rect width="82" height="20" fill="white"/>
</clipPath>
</defs>
</svg>
